<?xml version="1.0" standalone="no"?>
<!DOCTYPE svg PUBLIC "-//W3C//DTD SVG 20010904//EN"
 "http://www.w3.org/TR/2001/REC-SVG-20010904/DTD/svg10.dtd">
<svg version="1.0" xmlns="http://www.w3.org/2000/svg"
 width="700.000000pt" height="700.000000pt" viewBox="0 0 700.000000 700.000000"
 preserveAspectRatio="xMidYMid meet">
<metadata>
Created by potrace 1.11, written by Peter Selinger 2001-2013
</metadata>
<g transform="translate(0.000000,700.000000) scale(0.100000,-0.100000)"
fill="#000000" stroke="none">
<path d="M2986 6980 c-67 -24 -92 -39 -158 -93 -161 -132 -341 -477 -384 -737
-13 -77 -8 -241 10 -330 33 -162 116 -376 224 -575 114 -209 109 -201 162
-224 129 -55 255 -49 503 26 135 41 164 46 262 48 124 3 166 -5 394 -78 210
-68 191 -68 307 -1 292 168 542 390 679 602 65 102 164 327 180 413 2 9 8 32
13 51 5 19 9 62 10 96 1 175 -83 281 -256 322 -53 12 -115 14 -482 11 -199 -2
-224 -1 -320 14 -93 13 -191 45 -283 91 -54 27 -218 131 -227 144 -10 14 -183
123 -253 159 -151 79 -274 98 -381 61z"/>
<path d="M1716 5350 c-41 -13 -73 -46 -92 -96 -31 -82 9 -164 89 -184 106 -26
232 -85 353 -165 134 -89 133 -86 54 -99 -58 -10 -124 -28 -280 -77 -91 -28
-187 -57 -213 -64 -95 -27 -132 -69 -131 -152 0 -57 18 -90 68 -127 43 -32
102 -25 286 37 91 30 203 65 250 77 79 21 252 36 271 24 5 -3 -35 -42 -89 -87
-53 -45 -102 -86 -108 -92 -6 -5 -56 -50 -110 -100 -116 -107 -296 -285 -378
-375 -32 -36 -70 -78 -85 -95 -48 -52 -187 -230 -248 -317 -241 -339 -403
-696 -448 -988 -4 -25 -9 -54 -11 -65 -8 -39 -18 -181 -17 -260 1 -326 93
-625 287 -930 28 -44 56 -87 63 -95 6 -8 33 -43 58 -78 64 -85 193 -232 285
-321 257 -252 510 -408 855 -527 94 -33 317 -94 395 -109 82 -15 269 -45 315
-51 28 -3 64 -7 80 -9 188 -26 783 -26 910 0 11 2 43 6 70 9 42 5 192 30 300
51 122 24 407 113 540 170 519 221 885 605 1020 1070 144 495 60 1080 -241
1678 -36 71 -83 158 -104 194 -22 36 -40 66 -40 68 0 16 -206 304 -304 425
-83 102 -90 111 -226 261 -204 225 -722 718 -796 757 -23 12 -125 30 -264 47
-51 6 -161 33 -265 64 -100 30 -112 32 -195 36 -91 4 -123 -1 -325 -56 -109
-29 -133 -32 -265 -33 -133 0 -151 2 -210 26 -135 54 -294 148 -490 292 -257
188 -510 298 -614 266z m1955 -1191 c54 -17 108 -65 134 -121 19 -40 22 -66
23 -165 1 -65 1 -130 1 -145 1 -20 6 -28 19 -28 32 0 176 -51 257 -92 226
-113 353 -260 363 -421 3 -63 1 -76 -20 -106 -41 -61 -86 -84 -156 -82 -65 3
-85 17 -189 143 -90 107 -191 190 -258 211 -20 7 -20 3 -18 -391 1 -218 2
-404 2 -413 1 -12 25 -22 89 -39 209 -54 325 -109 429 -204 175 -160 249 -377
221 -645 -26 -248 -156 -445 -370 -561 -95 -51 -200 -88 -294 -103 -41 -6 -74
-16 -74 -22 -1 -5 -2 -71 -3 -145 -3 -126 -5 -138 -29 -175 -71 -110 -180
-144 -293 -91 -60 28 -77 46 -106 110 -18 41 -21 69 -23 179 l-1 130 -85 18
c-202 42 -382 131 -495 246 -210 213 -220 507 -18 527 73 8 120 -24 193 -129
19 -27 37 -52 40 -55 3 -3 23 -28 43 -57 69 -95 170 -173 276 -213 l48 -19 0
465 c1 443 0 464 -18 464 -10 0 -20 4 -23 9 -3 5 -20 11 -38 14 -64 9 -174 47
-255 87 -208 103 -354 297 -399 530 -22 116 9 315 67 435 55 111 181 247 274
292 17 8 46 23 65 33 48 26 181 69 260 84 l65 12 2 132 c1 107 6 140 22 177
47 106 159 157 272 124z"/>
<path d="M3305 3376 c-114 -41 -197 -115 -243 -215 -21 -47 -26 -72 -26 -151
-1 -81 2 -102 22 -140 30 -56 84 -113 140 -146 34 -20 162 -74 176 -74 6 0 4
725 -3 736 -4 9 -23 6 -66 -10z"/>
<path d="M3827 1710 c0 -215 4 -394 8 -398 11 -11 133 58 185 105 168 151 186
415 38 564 -45 45 -144 101 -203 113 l-30 6 2 -390z"/>
</g>
</svg>
